<?xml version="1.0" encoding="UTF-8"?>
<!DOCTYPE svg PUBLIC "-//W3C//DTD SVG 1.1//EN" "http://www.w3.org/Graphics/SVG/1.1/DTD/svg11.dtd">
<!-- Creator: CorelDRAW 2021 (64-Bit) -->
<svg xmlns="http://www.w3.org/2000/svg" xml:space="preserve" width="2.18166in" height="0.635906in" version="1.1" style="shape-rendering:geometricPrecision; text-rendering:geometricPrecision; image-rendering:optimizeQuality; fill-rule:evenodd; clip-rule:evenodd"
viewBox="0 0 225.2 65.64"
 xmlns:xlink="http://www.w3.org/1999/xlink"
 xmlns:xodm="http://www.corel.com/coreldraw/odm/2003">
 <defs>
  <style type="text/css">
   <![CDATA[
    .fil0 {fill:white;fill-rule:nonzero}
   ]]>
  </style>
 </defs>
 <g id="Layer_x0020_1">
  <metadata id="CorelCorpID_0Corel-Layer"/>
  <g id="_1584721897936">
   <path class="fil0" d="M37.21 49.71c-9.08,0.53 -13.33,-7.17 -15.53,-12.63l-4.92 -12.14c-2.51,-6.14 -6.51,-10.72 -13.5,-7.06l0.07 0.34c3.77,-1.39 5.9,1.42 7.36,4.72l-7.56 17.23c-0.75,1.29 -1.9,1.87 -2.82,1.87l-0.31 0 0 0.34 7.26 0 0 -0.34 -0.31 0c-0.88,0 -1.87,-0.78 -1.29,-2.14l1.76 -4.31 8.04 0 1.09 2.88c3.83,10.04 12.09,14.73 23.24,11.82l-2.59 -0.58zm-29.17 -15.54l3.63 -8.75c0.34,0.88 0.61,1.7 0.92,2.48l2.34 6.28 -6.89 0z"/>
   <path class="fil0" d="M23.51 18.59c-5.09,0 -7.6,4.51 -4.07,7.94l0.34 -0.17c-2.1,-3.53 0.07,-6.34 3.73,-6.34l6.65 0 0 19.91c-0.07,1.15 -1.02,2.1 -2.17,2.1l-0.44 0 0 0.34 10.31 0 0 -0.34 -0.44 0c-1.19,0 -2.14,-0.95 -2.17,-2.14l0 -19.88 4.55 0c2.1,0.03 4.52,0 7.27,0l0.93 -0.47 -0.27 -0.61 -3.18 -0.18c-0.61,0.27 -3.56,-0.16 -5.02,-0.13l-16.01 -0.03z"/>
   <path class="fil0" d="M67.31 21.65c0.03,-3.43 0.95,-7.53 5.06,-7.6l1.06 -1.14c-5.36,-0.75 -11.17,3.58 -11.17,8.74l0 8.18 -10.69 0 0 -8.79c0.03,-1.19 1.02,-2.1 2.17,-2.1l0.41 0 0.03 -0.34 -8.18 0.03 -8.22 0 6.09 0.31 0.44 0c1.15,0 2.14,0.95 2.17,2.14l0 18.89c0,3.66 -3.72,8.46 -8.62,9.74l-2.33 0.85c6.28,1.29 16.04,-5.43 16.04,-10.59l0 -8.72 10.65 0 0 8.68c-0.03,1.15 -1.02,2.07 -2.17,2.07l-0.44 0 0 0.34 10.31 0 0 -0.34 -0.44 0c-1.22,0 -2.17,-0.98 -2.17,-2.1l0 -18.25z"/>
   <path class="fil0" d="M102.5 48.21c-6.17,1.53 -9.74,-5.67 -11.94,-11.13l-4.92 -12.14c-2.51,-6.14 -8.21,-14.83 -15.19,-11.16l0.07 0.34c3.77,-1.39 7.59,5.53 9.05,8.82l-7.56 17.23c-0.75,1.29 -1.9,1.87 -2.82,1.87l-0.31 0 0 0.34 7.26 0 0 -0.34 -0.31 0c-0.88,0 -1.87,-0.78 -1.29,-2.14l1.76 -4.31 8.04 0 1.09 2.88c3.83,10.04 11.19,13.06 17.13,10.07l-0.07 -0.34zm-25.58 -14.04l3.63 -8.75c0.34,0.88 0.61,1.7 0.92,2.48l2.34 6.28 -6.89 0z"/>
   <path class="fil0" d="M162.74 27.18c-0.88,-3.46 0.92,-7.33 5.29,-7.6 5.12,-0.34 8.07,4.61 8.07,10.62 0,6.82 -3.77,11.19 -9.16,11.19 -5.46,0 -9.23,-4.58 -9.23,-12.01 0,-4.07 1.09,-8.31 3.46,-10.31l-0.2 -0.34c-5.36,1.49 -9.12,5.9 -9.12,11.57 0,7.5 6.37,12.52 15.09,12.52 8.68,0 14.72,-4.99 14.72,-12.58 0,-8.31 -7.46,-12.75 -13.6,-12.08 -5.8,0.58 -7.26,5.6 -5.7,9.06l0.37 -0.03z"/>
   <path class="fil0" d="M202.4 26.6l0 0.27c0,1.66 -1.22,2.88 -2.88,2.92l-9.8 0 0 -9.71 5.8 0c2,0.07 3.54,-0.13 6.05,0l-1.06 -1.19 0.26 -0.66 -1.19 -0.01c-1.19,0.05 -13.25,0 -14.71,0l-2.83 0 0 0.84 0.41 0c1.15,0 2.1,0.65 2.17,1.77l0 18.93c-0.03,1.15 -0.98,2.14 -2.17,2.14l-0.44 0 0 0.34 10.31 0 0 -0.34 -0.44 0c-1.19,0 -2.14,-0.98 -2.17,-2.14l0 -8.55 9.84 0c1.66,0.07 2.85,1.29 2.85,2.92l0 0.31 0.31 0 0 -7.84 -0.31 0z"/>
   <path class="fil0" d="M200.51 20.04c6.04,0.34 8.89,7.37 9.53,12.73l0 7.12c-0.03,1.19 -1.02,2.1 -2.17,2.1l-0.44 0 0 0.34 10.28 0 0 -0.34 -0.41 0c-1.25,0 -2.17,-1.02 -2.17,-2.1l0 -7.09c0.41,-5.22 5.29,-15.71 10.07,-15.84l0 -0.34c-5.53,-0.2 -9.23,6.07 -11.06,11.23 -2.14,-5.9 -6.15,-10.02 -14.43,-9.48l0.79 1.66z"/>
   <path class="fil0" d="M193.62 53.2c-7.88,7.09 -25.71,4.24 -40.94,0.93 -8.08,-1.66 -18.15,-4.04 -26.3,-5.3 11.26,-1.66 22.59,-10.27 22.66,-24.45 0.07,-14.05 -11.66,-24.12 -28.36,-24.38 -17.76,-0.2 -29.22,10.4 -29.22,23.85 0,10.8 7.69,18.68 18.48,20.54 7.29,1.19 15.04,-0.79 15.11,-10.34l-0.66 0c-1.19,6.76 -6.96,8.48 -11.4,7.82 -7.09,-0.99 -10.87,-8.35 -10.87,-17.49 0,-14.05 8.28,-22.06 18.68,-21.53 11.4,0.53 18.02,11.59 17.56,23.65 -0.66,15.11 -11.06,21.47 -21,21.4l-0.13 0 0 0.66c7.02,2.25 22.46,9.61 30.81,12.79 20.94,7.95 41.81,4.57 45.91,-7.88l-0.33 -0.26z"/>
  </g>
 </g>
</svg>
